<svg xmlns="http://www.w3.org/2000/svg" viewBox="0 0 512 512" role="img" aria-labelledby="title desc">
  <title id="title">Padoka 100</title>
  <desc id="desc">Marca simples com pao e numero 100.</desc>
  <rect width="512" height="512" rx="112" fill="#ef4444"/>
  <path fill="#fef3c7" d="M114 284c0-94 61-160 145-160s139 65 139 160v40c0 23-19 42-42 42H156c-23 0-42-19-42-42v-40Z"/>
  <path fill="#0f766e" d="M160 314h192v38H160z"/>
  <path fill="#991b1b" d="M186 254c-13-10-18-27-8-41 9-13 28-17 43-7 13 9 18 27 8 40-10 14-28 18-43 8Zm78-38c-11-12-11-30 2-42 13-11 32-10 44 3 11 13 10 31-2 42-14 12-32 11-44-3Z" opacity=".65"/>
  <text x="256" y="430" fill="#ffffff" font-family="Arial, sans-serif" font-size="92" font-weight="800" text-anchor="middle">100</text>
</svg>
